# xmcd CD database file
#
# Track frame offsets:
#	150
#	12947
#	26864
#	40364
#	53736
#
# Disc length: 890 seconds
#
# Revision: 0
# Processed by: cddbd v1.5.2PL0 Copyright (c) Steve Scherf et al.
# Submitted via: CDex 1.70beta2
#
DISCID=3a037805
DTITLE=The Honeybirds - The Honeybirds
DYEAR=2012
DGENRE=Jazz
TTITLE0=Boogie Woogie Bugle Boy
TTITLE1=Don't Sit Under The Apple Tree
TTITLE2=Oh Johnny, Oh Johnny, Oh!
TTITLE3=Shoo Shoo Baby
TTITLE4=Chattanooga Choo Choo
EXTD=YEAR: 2012
EXTT0=
EXTT1=
EXTT2=
EXTT3=
EXTT4=
PLAYORDER=
